<svg width="90" height="89" xmlns="http://www.w3.org/2000/svg" xmlns:xlink="http://www.w3.org/1999/xlink" xml:space="preserve" overflow="hidden"><g transform="translate(-756 -344)"><path d="M4.94444 4.94444 84.0555 4.94444 84.0555 84.0555 4.94444 84.0555Z" fill="#8C4FFF" fill-rule="evenodd" transform="matrix(1.01124 0 0 1 756 344)"/><path d="M0.988889 0.988889 88.0111 0.988889 88.0111 88.0111 0.988889 88.0111Z" stroke="#879196" stroke-width="1.97778" fill="none" fill-rule="evenodd" transform="matrix(1.01124 0 0 1 756 344)"/><path d="M43.5112 8.9 43.5112 16.8111 41.5334 16.8111 41.5334 11.4078 30.4173 24.3771C30.2423 24.5808 29.9921 24.7044 29.7251 24.7212 29.4512 24.7301 29.1931 24.6411 28.9953 24.4602L23.2657 19.1716 13.0604 29.3769 11.6621 27.9786 22.5398 17.1009C22.9146 16.7251 23.5198 16.7132 23.9104 17.0732L29.5837 22.3113 40.2321 9.88889 34.6112 9.88889 34.6112 7.91111 42.5223 7.91111C43.0692 7.91111 43.5112 8.35413 43.5112 8.9L43.5112 8.9ZM48.9353 41.5333 6.44274 41.5333 2.91043 36.5889 4.94457 36.5889 50.4334 36.5889 52.4676 36.5889 48.9353 41.5333ZM5.93346 3.86853C5.93346 2.82526 6.84027 1.97778 7.95475 1.97778L47.4233 1.97778C48.5377 1.97778 49.4445 2.82526 49.4445 3.86853L49.4445 34.6111 5.93346 34.6111 5.93346 3.86853ZM55.2691 35.1471C55.099 34.8178 54.7598 34.6111 54.389 34.6111L51.4223 34.6111 51.4223 3.86853C51.4223 1.7355 49.6285 0 47.4233 0L7.95475 0C5.74953 0 3.95568 1.7355 3.95568 3.86853L3.95568 34.6111 0.989017 34.6111C0.618184 34.6111 0.278995 34.8178 0.108906 35.1471-0.0601937 35.4764-0.030527 35.8729 0.185051 36.1745L5.1295 43.0968C5.31442 43.3568 5.61405 43.5111 5.93346 43.5111L49.4445 43.5111C49.764 43.5111 50.0636 43.3568 50.2485 43.0968L55.193 36.1745C55.4085 35.8729 55.4382 35.4764 55.2691 35.1471L55.2691 35.1471Z" fill="#FFFFFF" fill-rule="evenodd" transform="matrix(1.01124 0 0 1 773 366.744)"/></g></svg>