<svg width="90" height="89" xmlns="http://www.w3.org/2000/svg" xmlns:xlink="http://www.w3.org/1999/xlink" xml:space="preserve" overflow="hidden"><g transform="translate(-756 -344)"><path d="M4.94444 4.94444 84.0555 4.94444 84.0555 84.0555 4.94444 84.0555Z" fill="#C925D1" fill-rule="evenodd" transform="matrix(1.01124 0 0 1 756 344)"/><path d="M0.988889 0.988889 88.0111 0.988889 88.0111 88.0111 0.988889 88.0111Z" stroke="#879196" stroke-width="1.97778" fill="none" fill-rule="evenodd" transform="matrix(1.01124 0 0 1 756 344)"/><path d="M18.7889 27.6711C8.88121 27.6711 1.97778 24.5462 1.97778 21.7417L1.97778 11.5374C5.00081 14.1164 11.2308 15.8133 18.7889 15.8133 26.347 15.8133 32.577 14.1164 35.6 11.5374L35.6 21.7417C35.6 24.5462 28.6966 27.6711 18.7889 27.6711M18.7889 41.2634C8.88121 41.2634 1.97778 38.1385 1.97778 35.335L1.97778 25.3729C5.00081 27.9529 11.2308 29.6489 18.7889 29.6489 26.347 29.6489 32.577 27.9529 35.6 25.3729L35.6 35.335C35.6 38.1385 28.6966 41.2634 18.7889 41.2634M18.7889 53.4C8.88121 53.4 1.97778 50.2751 1.97778 47.4706L1.97778 38.9652C5.00081 41.5452 11.2308 43.2411 18.7889 43.2411 26.347 43.2411 32.577 41.5452 35.6 38.9652L35.6 47.4706C35.6 50.2751 28.6966 53.4 18.7889 53.4M18.7889 1.97778C28.6966 1.97778 35.6 5.10267 35.6 7.90716 35.6 10.7107 28.6966 13.8355 18.7889 13.8355 8.88121 13.8355 1.97778 10.7107 1.97778 7.90716 1.97778 5.10267 8.88121 1.97778 18.7889 1.97778M18.7889 0C8.07724 0 0 3.3998 0 7.90716L0 47.4706C0 51.979 8.07724 55.3778 18.7889 55.3778 29.5005 55.3778 37.5778 51.979 37.5778 47.4706L37.5778 7.90716C37.5778 3.3998 29.5005 0 18.7889 0" fill="#FFFFFF" fill-rule="evenodd" transform="matrix(1.01124 0 0 1 782 360.811)"/></g></svg>