<svg width="90" height="89" xmlns="http://www.w3.org/2000/svg" xmlns:xlink="http://www.w3.org/1999/xlink" xml:space="preserve" overflow="hidden"><g transform="translate(-756 -344)"><path d="M4.94444 4.94444 84.0555 4.94444 84.0555 84.0555 4.94444 84.0555Z" fill="#ED7100" fill-rule="evenodd" transform="matrix(1.01124 0 0 1 756 344)"/><path d="M0.988889 0.988889 88.0111 0.988889 88.0111 88.0111 0.988889 88.0111Z" stroke="#879196" stroke-width="1.97778" fill="none" fill-rule="evenodd" transform="matrix(1.01124 0 0 1 756 344)"/><path d="M16.8111 37.5778 37.5778 37.5778 37.5778 16.8111 16.8111 16.8111 16.8111 37.5778ZM15.8222 39.5556 38.5667 39.5556C39.1135 39.5556 39.5556 39.1125 39.5556 38.5667L39.5556 15.8222C39.5556 15.2764 39.1135 14.8333 38.5667 14.8333L15.8222 14.8333C15.2754 14.8333 14.8333 15.2764 14.8333 15.8222L14.8333 38.5667C14.8333 39.1125 15.2754 39.5556 15.8222 39.5556L15.8222 39.5556ZM8.9 45.4889 45.4889 45.4889 45.4889 8.9 8.9 8.9 8.9 45.4889ZM54.3889 10.8778 54.3889 8.9 47.4667 8.9 47.4667 7.91111C47.4667 7.36524 47.0246 6.92222 46.4778 6.92222L45.4889 6.92222 45.4889 0 43.5111 0 43.5111 6.92222 38.5667 6.92222 38.5667 0 36.5889 0 36.5889 6.92222 31.6444 6.92222 31.6444 0 29.6667 0 29.6667 6.92222 24.7222 6.92222 24.7222 0 22.7444 0 22.7444 6.92222 17.8 6.92222 17.8 0 15.8222 0 15.8222 6.92222 10.8778 6.92222 10.8778 0 8.9 0 8.9 6.92222 7.91111 6.92222C7.36426 6.92222 6.92222 7.36524 6.92222 7.91111L6.92222 8.9 0 8.9 0 10.8778 6.92222 10.8778 6.92222 15.8222 0 15.8222 0 17.8 6.92222 17.8 6.92222 22.7444 0 22.7444 0 24.7222 6.92222 24.7222 6.92222 29.6667 0 29.6667 0 31.6444 6.92222 31.6444 6.92222 36.5889 0 36.5889 0 38.5667 6.92222 38.5667 6.92222 43.5111 0 43.5111 0 45.4889 6.92222 45.4889 6.92222 46.4778C6.92222 47.0236 7.36426 47.4667 7.91111 47.4667L8.9 47.4667 8.9 54.3889 10.8778 54.3889 10.8778 47.4667 15.8222 47.4667 15.8222 54.3889 17.8 54.3889 17.8 47.4667 22.7444 47.4667 22.7444 54.3889 24.7222 54.3889 24.7222 47.4667 29.6667 47.4667 29.6667 54.3889 31.6444 54.3889 31.6444 47.4667 36.5889 47.4667 36.5889 54.3889 38.5667 54.3889 38.5667 47.4667 43.5111 47.4667 43.5111 54.3889 45.4889 54.3889 45.4889 47.4667 46.4778 47.4667C47.0246 47.4667 47.4667 47.0236 47.4667 46.4778L47.4667 45.4889 54.3889 45.4889 54.3889 43.5111 47.4667 43.5111 47.4667 38.5667 54.3889 38.5667 54.3889 36.5889 47.4667 36.5889 47.4667 31.6444 54.3889 31.6444 54.3889 29.6667 47.4667 29.6667 47.4667 24.7222 54.3889 24.7222 54.3889 22.7444 47.4667 22.7444 47.4667 17.8 54.3889 17.8 54.3889 15.8222 47.4667 15.8222 47.4667 10.8778 54.3889 10.8778Z" fill="#FFFFFF" fill-rule="evenodd" transform="matrix(1.01124 0 0 1 774 360.811)"/></g></svg>