<svg width="89" height="89" xmlns="http://www.w3.org/2000/svg" xmlns:xlink="http://www.w3.org/1999/xlink" xml:space="preserve" overflow="hidden"><g transform="translate(-756 -344)"><path d="M760.944 348.944 840.056 348.944 840.056 428.056 760.944 428.056Z" fill="#ED7100" fill-rule="evenodd"/><path d="M756.989 344.989 844.011 344.989 844.011 432.011 756.989 432.011Z" stroke="#879196" stroke-width="1.97778" fill="none" fill-rule="evenodd"/><path d="M776.767 408.278 824.233 408.278 824.233 389.489 776.767 389.489 776.767 408.278ZM774.789 413.222 826.211 413.222 826.211 410.256 774.789 410.256 774.789 413.222ZM826.211 389.489 826.211 408.278 827.2 408.278C827.747 408.278 828.189 408.721 828.189 409.267L828.189 414.211C828.189 414.757 827.747 415.2 827.2 415.2L773.8 415.2C773.253 415.2 772.811 414.757 772.811 414.211L772.811 409.267C772.811 408.721 773.253 408.278 773.8 408.278L774.789 408.278 774.789 389.489 773.8 389.489C773.253 389.489 772.811 389.046 772.811 388.5L772.811 383.556C772.811 383.039 773.211 382.628 773.716 382.583L794.043 369.861 795.091 371.539 777.471 382.567 809.4 382.567 809.4 384.544 774.789 384.544 774.789 387.511 826.211 387.511 826.211 384.544 812.367 384.544 812.367 382.567 823.529 382.567 805.909 371.539 806.957 369.861 827.284 382.583C827.789 382.628 828.189 383.039 828.189 383.556L828.189 388.5C828.189 389.046 827.747 389.489 827.2 389.489L826.211 389.489ZM800.5 371.689C802.681 371.689 804.456 369.915 804.456 367.733L802.478 367.733C802.478 368.824 801.591 369.711 800.5 369.711 799.409 369.711 798.522 368.824 798.522 367.733 798.522 366.643 799.409 365.756 800.5 365.756 801.047 365.756 801.489 365.313 801.489 364.767L801.489 359.822 799.511 359.822 799.511 363.902C797.806 364.343 796.544 365.894 796.544 367.733 796.544 369.915 798.318 371.689 800.5 371.689L800.5 371.689ZM781.711 405.311 783.689 405.311 783.689 392.456 781.711 392.456 781.711 405.311ZM787.644 405.311 789.622 405.311 789.622 392.456 787.644 392.456 787.644 405.311ZM793.578 405.311 795.556 405.311 795.556 392.597 793.578 392.597 793.578 405.311ZM817.311 405.311 819.289 405.311 819.289 392.597 817.311 392.597 817.311 405.311ZM811.378 405.311 813.356 405.311 813.356 392.597 811.378 392.597 811.378 405.311ZM805.444 405.311 807.422 405.311 807.422 392.597 805.444 392.597 805.444 405.311ZM799.511 405.311 801.489 405.311 801.489 392.456 799.511 392.456 799.511 405.311Z" fill="#FFFFFF" fill-rule="evenodd"/></g></svg>