<svg width="90" height="90" xmlns="http://www.w3.org/2000/svg" xmlns:xlink="http://www.w3.org/1999/xlink" xml:space="preserve" overflow="hidden"><g transform="translate(-756 -344)"><path d="M761 349 841 349 841 429 761 429Z" fill="#E7157B" fill-rule="evenodd"/><path d="M757 345 845 345 845 433 757 433Z" stroke="#879196" stroke-width="2" fill="none" fill-rule="evenodd"/><path d="M827 388 818.385 388C818.796 387.171 819.013 386.254 819.013 385.302 819.013 383.255 817.996 381.353 816.293 380.213 814.553 379.048 812.389 378.861 810.36 379.698 808.992 380.261 807.878 381.371 807.303 382.741 806.553 384.532 806.61 386.413 807.399 388L801 388 801 378.154C801 377.746 800.751 377.378 800.372 377.226 799.991 377.075 799.559 377.168 799.276 377.464 798.319 378.467 796.564 379.232 794.514 378.373 793.628 378.001 792.911 377.282 792.547 376.398 791.968 374.995 792.088 373.516 792.875 372.339 793.644 371.192 794.924 370.508 796.302 370.508 797.431 370.508 798.486 370.964 799.276 371.792 799.559 372.087 799.991 372.181 800.372 372.029 800.751 371.877 801 371.51 801 371.101L801 363 826 363C826.552 363 827 363.449 827 364L827 388ZM827 414C827 414.551 826.552 415 826 415L801 415 801 406.479C802.587 407.268 804.467 407.326 806.26 406.574 807.629 406 808.738 404.887 809.303 403.518 810.14 401.487 809.951 399.324 808.786 397.583 807.646 395.881 805.745 394.865 803.698 394.865 802.746 394.865 801.829 395.082 801 395.494L801 390 809.366 390C809.775 390 810.143 389.751 810.295 389.372 810.446 388.992 810.353 388.559 810.057 388.276 809.054 387.32 808.288 385.566 809.147 383.514 809.52 382.627 810.239 381.911 811.122 381.546 812.525 380.97 814.004 381.088 815.181 381.875 816.328 382.643 817.013 383.924 817.013 385.302 817.013 386.431 816.557 387.487 815.729 388.276 815.433 388.558 815.339 388.992 815.49 389.372 815.643 389.751 816.01 390 816.419 390L827 390 827 414ZM775 414 775 390 781.042 390C780.253 391.587 780.196 393.469 780.946 395.26 781.521 396.629 782.635 397.739 784.003 398.302 784.84 398.647 785.699 398.819 786.543 398.819 787.745 398.819 788.914 398.471 789.937 397.787 791.64 396.647 792.656 394.745 792.656 392.698 792.656 391.746 792.439 390.829 792.027 390L799 390 799 397.458C799 397.867 799.249 398.235 799.628 398.387 800.008 398.539 800.441 398.444 800.724 398.149 801.514 397.321 802.57 396.865 803.698 396.865 805.076 396.865 806.356 397.549 807.125 398.696 807.912 399.873 808.032 401.352 807.453 402.755 807.089 403.639 806.372 404.358 805.486 404.729 803.433 405.589 801.68 404.824 800.724 403.821 800.441 403.525 800.008 403.431 799.628 403.583 799.249 403.735 799 404.103 799 404.511L799 415 776 415C775.448 415 775 414.551 775 414L775 414ZM776 363 799 363 799 369.136C798.171 368.725 797.254 368.508 796.302 368.508 794.255 368.508 792.354 369.524 791.214 371.227 790.049 372.967 789.86 375.13 790.697 377.161 791.262 378.53 792.371 379.644 793.74 380.217 795.532 380.967 797.412 380.91 799 380.122L799 388 790.062 388C789.653 388 789.286 388.249 789.134 388.628 788.982 389.008 789.076 389.441 789.372 389.724 790.2 390.514 790.656 391.57 790.656 392.698 790.656 394.076 789.972 395.357 788.824 396.125 787.648 396.913 786.169 397.034 784.765 396.453 783.882 396.089 783.162 395.373 782.791 394.487 781.931 392.435 782.696 390.681 783.699 389.724 783.995 389.441 784.089 389.007 783.937 388.628 783.785 388.249 783.418 388 783.009 388L775 388 775 364C775 363.449 775.448 363 776 363L776 363ZM826 361 776 361C774.346 361 773 362.346 773 364L773 414C773 415.654 774.346 417 776 417L826 417C827.654 417 829 415.654 829 414L829 364C829 362.346 827.654 361 826 361L826 361Z" fill="#FFFFFF" fill-rule="evenodd"/></g></svg>