<svg width="90" height="90" xmlns="http://www.w3.org/2000/svg" xmlns:xlink="http://www.w3.org/1999/xlink" xml:space="preserve" overflow="hidden"><g transform="translate(-756 -344)"><path d="M761 349 841 349 841 429 761 429Z" fill="#8C4FFF" fill-rule="evenodd"/><path d="M757 345 845 345 845 433 757 433Z" stroke="#879196" stroke-width="2" fill="none" fill-rule="evenodd"/><path d="M777 385.23C777.002 384.915 777.156 377.516 786.162 377.516 786.715 377.516 787.162 377.068 787.162 376.516 787.162 363.214 797.345 363.002 797.775 363 803.081 363 806.126 365.256 807.359 370.102 807.435 370.397 807.64 370.643 807.918 370.768 808.196 370.893 808.517 370.883 808.787 370.744 810.283 369.971 811.616 370.81 812.279 371.377 813.811 372.687 815.021 375.331 814.247 377.651 814.145 377.957 814.196 378.292 814.384 378.552 814.572 378.813 814.874 378.968 815.195 378.968 821.932 378.968 825 382.358 825 385.509 825 390.09 822.355 392.937 818.099 392.937L784.71 392.937C780.314 392.937 777 389.622 777 385.23L777 385.23ZM819.313 406.437C819.313 408.366 817.742 409.937 815.813 409.937 813.883 409.937 812.313 408.366 812.313 406.437 812.313 404.507 813.883 402.937 815.813 402.937 817.742 402.937 819.313 404.507 819.313 406.437L819.313 406.437ZM804.812 411.437C804.812 413.366 803.242 414.937 801.312 414.937 799.383 414.937 797.812 413.366 797.812 411.437 797.812 409.507 799.383 407.937 801.312 407.937 803.242 407.937 804.812 409.507 804.812 411.437L804.812 411.437ZM786.813 409.937C784.883 409.937 783.312 408.366 783.312 406.437 783.312 404.507 784.883 402.937 786.813 402.937 788.742 402.937 790.313 404.507 790.313 406.437 790.313 408.366 788.742 409.937 786.813 409.937L786.813 409.937ZM818.099 394.937C823.506 394.937 827 391.236 827 385.509 827 381.611 823.684 377.431 816.434 377.003 816.784 374.209 815.381 371.398 813.58 369.857 812.153 368.636 810.531 368.187 808.989 368.549 807.34 363.538 803.572 361 797.775 361 797.652 361 785.696 361.169 785.18 375.542 775.119 376.095 775 385.132 775 385.227 775 390.762 779.175 394.937 784.71 394.937L797.192 394.937 789.517 401.653C788.717 401.199 787.795 400.937 786.813 400.937 783.78 400.937 781.312 403.404 781.312 406.437 781.312 409.469 783.78 411.937 786.813 411.937 789.845 411.937 792.313 409.469 792.313 406.437 792.313 405.116 791.844 403.903 791.065 402.954L800.312 394.937 800.312 406.032C797.757 406.504 795.812 408.746 795.812 411.437 795.812 414.469 798.28 416.937 801.312 416.937 804.345 416.937 806.812 414.469 806.812 411.437 806.812 408.746 804.868 406.504 802.312 406.032L802.312 394.937 811.56 402.954C810.781 403.903 810.313 405.116 810.313 406.437 810.313 409.469 812.78 411.937 815.813 411.937 818.845 411.937 821.313 409.469 821.313 406.437 821.313 403.404 818.845 400.937 815.813 400.937 814.83 400.937 813.908 401.199 813.108 401.653L805.433 394.937 818.099 394.937Z" fill="#FFFFFF" fill-rule="evenodd"/></g></svg>