<svg width="90" height="89" xmlns="http://www.w3.org/2000/svg" xmlns:xlink="http://www.w3.org/1999/xlink" xml:space="preserve" overflow="hidden"><g transform="translate(-756 -344)"><path d="M4.94444 4.94444 84.0555 4.94444 84.0555 84.0555 4.94444 84.0555Z" fill="#DD344C" fill-rule="evenodd" transform="matrix(1.01124 0 0 1 756 344)"/><path d="M0.988889 0.988889 88.0111 0.988889 88.0111 88.0111 0.988889 88.0111Z" stroke="#879196" stroke-width="1.97778" fill="none" fill-rule="evenodd" transform="matrix(1.01124 0 0 1 756 344)"/><path d="M39.5556 32.7736C39.5556 32.827 39.52 38.1501 37.1456 43.3704 34.0346 50.2125 28.5245 53.6826 20.7667 53.6826 13.0177 53.6826 7.50863 49.9812 4.39264 42.6822 2.01239 37.1038 1.97778 31.4178 1.97778 31.3624L1.97778 9.28938 20.7667 2.04873 39.5556 9.28938 39.5556 32.7736ZM40.8995 7.68737 21.1217 0.0660083C20.8942-0.0220028 20.6391-0.0220028 20.4117 0.0660083L0.633878 7.68737C0.252167 7.83472 0 8.2016 0 8.61001L0 31.3624C0 31.6046 0.237333 55.6604 20.7667 55.6604 41.296 55.6604 41.5333 33.0029 41.5333 32.7744L41.5333 8.61001C41.5333 8.2016 41.2812 7.83472 40.8995 7.68737L40.8995 7.68737ZM34.6111 32.7666C34.5973 34.3597 34.1117 48.0094 21.7556 48.7046L21.7556 7.72891 34.6111 12.6833 34.6111 32.7666ZM6.92222 31.3624 6.92222 12.6833 19.7778 7.72891 19.7778 48.6995C7.07847 47.9124 6.92222 32.0535 6.92222 31.3624L6.92222 31.3624ZM20.4117 5.36546 5.57832 11.0813C5.19661 11.2285 4.94444 11.5944 4.94444 12.0039L4.94444 31.3624C4.94444 32.1524 5.12442 50.716 20.7667 50.716 27.0797 50.716 31.8027 47.8126 34.4262 42.3212 36.4445 38.0948 36.582 33.6338 36.5889 32.7744L36.5889 12.0039C36.5889 11.5944 36.3367 11.2285 35.955 11.0813L21.1217 5.36546C20.8942 5.27745 20.6391 5.27745 20.4117 5.36546L20.4117 5.36546Z" fill="#FFFFFF" fill-rule="evenodd" transform="matrix(1.01124 0 0 1 780 360.811)"/></g></svg>