<svg width="90" height="89" xmlns="http://www.w3.org/2000/svg" xmlns:xlink="http://www.w3.org/1999/xlink" xml:space="preserve" overflow="hidden"><g transform="translate(-756 -344)"><path d="M4.94444 4.94444 84.0555 4.94444 84.0555 84.0555 4.94444 84.0555Z" fill="#7AA116" fill-rule="evenodd" transform="matrix(1.01124 0 0 1 756 344)"/><path d="M0.988889 0.988889 88.0111 0.988889 88.0111 88.0111 0.988889 88.0111Z" stroke="#879196" stroke-width="1.97778" fill="none" fill-rule="evenodd" transform="matrix(1.01124 0 0 1 756 344)"/><path d="M16.8111 37.5778 34.6111 37.5778 34.6121 42.5222 16.8111 42.5222 16.8111 37.5778ZM16.8111 44.5 34.6111 44.5C35.7019 44.5 36.5889 43.613 36.5889 42.5222L36.5889 37.5778C36.5889 36.487 35.7019 35.6 34.6111 35.6L16.8111 35.6C15.7204 35.6 14.8333 36.487 14.8333 37.5778L14.8333 42.5222C14.8333 43.613 15.7204 44.5 16.8111 44.5L16.8111 44.5ZM14.8333 22.7444 35.6 22.7444 35.6 20.7667 14.8333 20.7667 14.8333 22.7444ZM14.8333 9.88889 22.7444 9.88889 22.7444 7.91111 14.8333 7.91111 14.8333 9.88889ZM14.8333 15.8222 23.7333 15.8222 23.7333 13.8444 14.8333 13.8444 14.8333 15.8222ZM49.4444 51.4558C49.4444 52.5278 48.5722 53.4 47.5003 53.4L3.92193 53.4C2.84998 53.4 1.97778 52.5278 1.97778 51.4558L1.97778 30.6556 49.4444 30.6556 49.4444 51.4558ZM10.8778 1.97778 29.6667 1.97778 29.6667 11.8667C29.6667 12.4125 30.1087 12.8556 30.6556 12.8556L40.5444 12.8556 40.5444 28.6778 10.8778 28.6778 10.8778 1.97778ZM31.6444 3.37607 39.1462 10.8778 31.6444 10.8778 31.6444 3.37607ZM50.4333 28.6778 42.5222 28.6778 42.5222 11.8667 42.5133 11.8667C42.5123 11.6096 42.4214 11.3564 42.2325 11.1675L31.3547 0.289744C31.1658 0.100867 30.9127 0.00988889 30.6556 0.00988889L30.6556 0 9.88889 0C9.34203 0 8.9 0.443022 8.9 0.988889L8.9 28.6778 0.988889 28.6778C0.442033 28.6778 0 29.1208 0 29.6667L0 51.4558C0 53.6185 1.75923 55.3778 3.92193 55.3778L47.5003 55.3778C49.663 55.3778 51.4222 53.6185 51.4222 51.4558L51.4222 29.6667C51.4222 29.1208 50.9802 28.6778 50.4333 28.6778L50.4333 28.6778Z" fill="#FFFFFF" fill-rule="evenodd" transform="matrix(1.01124 0 0 1 775 360.811)"/></g></svg>